<svg width="1020" height="1020" viewBox="0 0 1020 1020" fill="none" xmlns="http://www.w3.org/2000/svg">
<path d="M11 258.487L258.487 11L329.198 81.7107L205.454 205.454L81.7107 329.198L11 258.487Z" fill="#FF0000"/>
<path d="M329.198 258.487L81.7107 11L11 81.7107L258.487 329.198L329.198 258.487Z" fill="#FF0000"/>
<path d="M510 279C570.199 279 619 230.199 619 170C619 109.801 570.199 61 510 61C449.801 61 401 109.801 401 170C401 230.199 449.801 279 510 279Z" stroke="#FFE600" stroke-width="100"/>
<path d="M850 959C910.199 959 959 910.199 959 850C959 789.801 910.199 741 850 741C789.801 741 741 789.801 741 850C741 910.199 789.801 959 850 959Z" stroke="#FFE600" stroke-width="100"/>
<path d="M351 598.487L598.487 351L669.198 421.711L545.454 545.454L421.711 669.198L351 598.487Z" fill="#FF0000"/>
<path d="M669.198 598.487L421.711 351L351 421.711L598.488 669.198L669.198 598.487Z" fill="#FF0000"/>
</svg>
